<svg width="50" height="64" viewBox="0 0 50 64" fill="none" xmlns="http://www.w3.org/2000/svg">
<rect width="50" height="64" fill="white" fill-opacity="0.02"/>
<path d="M45.3125 8H4.6875C2.09863 8 0 10.6862 0 14V50C0 53.3138 2.09863 56 4.6875 56H45.3125C47.9014 56 50 53.3138 50 50V14C50 10.6862 47.9014 8 45.3125 8ZM45.3125 14V19.1006C43.1229 21.383 39.632 24.932 32.1692 32.4119C30.5246 34.0678 27.2668 38.0459 25 37.9995C22.7336 38.0464 19.4747 34.0671 17.8308 32.4119C10.3691 24.9331 6.87744 21.3834 4.6875 19.1006V14H45.3125ZM4.6875 50V26.7997C6.9252 29.0811 10.0985 32.2825 14.9354 37.1305C17.0698 39.2811 20.8078 44.0287 25 43.9999C29.1716 44.0287 32.8622 39.35 35.0638 37.1315C39.9005 32.2836 43.0747 29.0814 45.3125 26.7999V50H4.6875Z" fill="white"/>
</svg>
