<svg width="51" height="58" viewBox="0 0 51 58" fill="none" xmlns="http://www.w3.org/2000/svg">
<g clip-path="url(#clip0)">
<rect width="51" height="58" fill="white" fill-opacity="0.02"/>
<path d="M45.5357 3.625H5.46429C4.01507 3.625 2.6252 4.19788 1.60045 5.21761C0.5757 6.23734 0 7.62039 0 9.0625L0 48.9375C0 50.3796 0.5757 51.7627 1.60045 52.7824C2.6252 53.8021 4.01507 54.375 5.46429 54.375H45.5357C46.9849 54.375 48.3748 53.8021 49.3995 52.7824C50.4243 51.7627 51 50.3796 51 48.9375V9.0625C51 7.62039 50.4243 6.23734 49.3995 5.21761C48.3748 4.19788 46.9849 3.625 45.5357 3.625ZM43.6699 38.4443L41.9623 45.8075C41.8756 46.1819 41.6639 46.516 41.3618 46.7552C41.0598 46.9945 40.6852 47.1248 40.2991 47.125C22.0848 47.125 7.28571 32.4313 7.28571 14.2734C7.29926 13.8929 7.43521 13.5267 7.67354 13.2288C7.91187 12.9308 8.24 12.7169 8.60966 12.6184L16.0092 10.9192C16.1354 10.8926 16.2639 10.8778 16.3929 10.875C16.7231 10.8916 17.0428 10.9958 17.3188 11.1769C17.5949 11.358 17.8172 11.6093 17.9627 11.9047L21.3779 19.8344C21.4615 20.0482 21.5081 20.2746 21.5156 20.5039C21.4878 21.0069 21.2631 21.4791 20.8895 21.8191L16.5761 25.3308C19.1897 30.843 23.6479 35.2794 29.1873 37.8801L32.7163 33.5879C33.058 33.2162 33.5325 32.9925 34.0379 32.9648C34.2684 32.9722 34.4959 33.0186 34.7107 33.1019L42.6795 36.5004C42.9765 36.6449 43.2292 36.8661 43.4112 37.1408C43.5932 37.4156 43.6979 37.7338 43.7143 38.0625C43.712 38.1909 43.6971 38.3187 43.6699 38.4443Z" fill="white"/>
</g>
<defs>
<clipPath id="clip0">
<rect width="51" height="58" fill="white"/>
</clipPath>
</defs>
</svg>
