<svg width="43" height="46" viewBox="0 0 43 46" fill="none" xmlns="http://www.w3.org/2000/svg">
<path d="M21.5096 11.3203C15.4051 11.3203 10.4812 16.5305 10.4812 22.9898C10.4812 29.4492 15.4051 34.6594 21.5096 34.6594C27.614 34.6594 32.5379 29.4492 32.5379 22.9898C32.5379 16.5305 27.614 11.3203 21.5096 11.3203ZM21.5096 30.5765C17.5647 30.5765 14.3397 27.1742 14.3397 22.9898C14.3397 18.8055 17.5551 15.4031 21.5096 15.4031C25.464 15.4031 28.6794 18.8055 28.6794 22.9898C28.6794 27.1742 25.4544 30.5765 21.5096 30.5765ZM35.5614 10.843C35.5614 12.3562 34.4096 13.5648 32.989 13.5648C31.5589 13.5648 30.4167 12.3461 30.4167 10.843C30.4167 9.33983 31.5685 8.12108 32.989 8.12108C34.4096 8.12108 35.5614 9.33983 35.5614 10.843ZM42.8656 13.6055C42.7024 9.95936 41.9154 6.72967 39.391 4.06873C36.8763 1.40779 33.8241 0.574982 30.3783 0.392169C26.827 0.178888 16.1826 0.178888 12.6312 0.392169C9.19508 0.564825 6.14285 1.39764 3.61852 4.05858C1.09419 6.71951 0.316737 9.9492 0.14397 13.5953C-0.0575927 17.3531 -0.0575927 28.6164 0.14397 32.3742C0.307139 36.0203 1.09419 39.25 3.61852 41.9109C6.14285 44.5719 9.18548 45.4047 12.6312 45.5875C16.1826 45.8008 26.827 45.8008 30.3783 45.5875C33.8241 45.4148 36.8763 44.582 39.391 41.9109C41.9058 39.25 42.6928 36.0203 42.8656 32.3742C43.0672 28.6164 43.0672 17.3633 42.8656 13.6055ZM38.2776 36.4062C37.529 38.3969 36.0797 39.9305 34.1888 40.7328C31.3573 41.9211 24.6386 41.6469 21.5096 41.6469C18.3806 41.6469 11.6522 41.9109 8.83035 40.7328C6.9491 39.9406 5.49977 38.407 4.74151 36.4062C3.61852 33.4101 3.87767 26.3008 3.87767 22.9898C3.87767 19.6789 3.62812 12.5594 4.74151 9.57342C5.49017 7.58279 6.9395 6.0492 8.83035 5.24686C11.6618 4.05858 18.3806 4.33279 21.5096 4.33279C24.6386 4.33279 31.3669 4.06873 34.1888 5.24686C36.0701 6.03904 37.5194 7.57264 38.2776 9.57342C39.4006 12.5695 39.1415 19.6789 39.1415 22.9898C39.1415 26.3008 39.4006 33.4203 38.2776 36.4062Z" fill="white"/>
</svg>
